<svg width="168" height="112" viewBox="0 0 168 112" fill="none" xmlns="http://www.w3.org/2000/svg">
<circle cx="4" cy="4" r="4" fill="#537089"/>
<circle cx="4" cy="30" r="4" fill="#537089"/>
<circle cx="4" cy="56" r="4" fill="#537089"/>
<circle cx="4" cy="82" r="4" fill="#537089"/>
<circle cx="4" cy="108" r="4" fill="#537089"/>
<circle cx="24" cy="4" r="4" fill="#537089"/>
<circle cx="24" cy="30" r="4" fill="#537089"/>
<circle cx="24" cy="56" r="4" fill="#537089"/>
<circle cx="24" cy="82" r="4" fill="#537089"/>
<circle cx="24" cy="108" r="4" fill="#537089"/>
<circle cx="44" cy="4" r="4" fill="#537089"/>
<circle cx="44" cy="30" r="4" fill="#537089"/>
<circle cx="44" cy="56" r="4" fill="#537089"/>
<circle cx="44" cy="82" r="4" fill="#537089"/>
<circle cx="44" cy="108" r="4" fill="#537089"/>
<circle cx="64" cy="4" r="4" fill="#537089"/>
<circle cx="124" cy="4" r="4" fill="#537089"/>
<circle cx="84" cy="4" r="4" fill="#537089"/>
<circle cx="144" cy="4" r="4" fill="#537089"/>
<circle cx="104" cy="4" r="4" fill="#537089"/>
<circle cx="164" cy="4" r="4" fill="#537089"/>
<circle cx="64" cy="30" r="4" fill="#537089"/>
<circle cx="124" cy="30" r="4" fill="#537089"/>
<circle cx="84" cy="30" r="4" fill="#537089"/>
<circle cx="144" cy="30" r="4" fill="#537089"/>
<circle cx="104" cy="30" r="4" fill="#537089"/>
<circle cx="164" cy="30" r="4" fill="#537089"/>
<circle cx="64" cy="56" r="4" fill="#537089"/>
<circle cx="124" cy="56" r="4" fill="#537089"/>
<circle cx="84" cy="56" r="4" fill="#537089"/>
<circle cx="144" cy="56" r="4" fill="#537089"/>
<circle cx="104" cy="56" r="4" fill="#537089"/>
<circle cx="164" cy="56" r="4" fill="#537089"/>
<circle cx="64" cy="82" r="4" fill="#537089"/>
<circle cx="124" cy="82" r="4" fill="#537089"/>
<circle cx="64" cy="108" r="4" fill="#537089"/>
<circle cx="124" cy="108" r="4" fill="#537089"/>
<circle cx="84" cy="82" r="4" fill="#537089"/>
<circle cx="144" cy="82" r="4" fill="#537089"/>
<circle cx="104" cy="82" r="4" fill="#537089"/>
<circle cx="164" cy="82" r="4" fill="#537089"/>
<circle cx="84" cy="108" r="4" fill="#537089"/>
<circle cx="144" cy="108" r="4" fill="#537089"/>
<circle cx="104" cy="108" r="4" fill="#537089"/>
<circle cx="164" cy="108" r="4" fill="#537089"/>
</svg>
